<?xml version="1.0" encoding="UTF-8" standalone="no"?>
<!DOCTYPE svg PUBLIC "-//W3C//DTD SVG 1.1//EN" "http://www.w3.org/Graphics/SVG/1.1/DTD/svg11.dtd">
<svg width="100%" height="100%" viewBox="0 0 520 120" version="1.1" xmlns="http://www.w3.org/2000/svg" xmlns:xlink="http://www.w3.org/1999/xlink" xml:space="preserve" xmlns:serif="http://www.serif.com/" style="fill-rule:evenodd;clip-rule:evenodd;stroke-linejoin:round;stroke-miterlimit:1.41421;">
    <g transform="matrix(0.684999,0,0,0.684999,-26.8383,-143.232)">
        <path d="M179.149,238.626L61.121,238.626L61.121,356.654L179.149,356.654L179.149,238.626ZM175.215,352.72L65.055,352.72L65.055,242.561L175.215,242.561L175.215,352.72Z" style="fill:rgb(225,31,38);fill-rule:nonzero;"/>
    </g>
    <g id="Layer2">
        <g transform="matrix(0.0715892,0,0,0.0715892,18.7968,22.6768)">
            <path d="M670.5,606.669C664.6,618.069 657.7,628.869 649.9,639.069C652,636.369 654.1,633.669 656.2,630.969C644.7,645.869 631.4,659.269 616.5,670.869C619.2,668.769 621.9,666.669 624.6,664.569C609.6,676.069 593.2,685.669 575.8,693.069C579,691.769 582.2,690.369 585.4,689.069C567.9,696.369 549.6,701.269 530.8,703.869C534.3,703.369 537.9,702.869 541.4,702.469C521.8,705.069 502.1,705.069 482.5,702.469C486,702.969 489.6,703.469 493.1,703.869C474.3,701.269 456,696.269 438.5,689.069C441.7,690.369 444.9,691.769 448.1,693.069C430.7,685.669 414.3,676.169 399.3,664.569C402,666.669 404.7,668.769 407.4,670.869C392.5,659.269 379.2,645.869 367.7,630.969C369.8,633.669 371.9,636.369 374,639.069C366.2,628.869 359.4,618.069 353.4,606.669C343.7,588.069 316.2,580.969 298.7,592.269C279.8,604.469 274,627.069 284.3,646.969C318.2,711.969 381.9,761.569 453.5,777.569C520,792.469 592.1,781.469 649.7,744.269C687.2,720.069 718.9,686.569 739.5,646.869C744.4,637.369 746.4,626.569 743.5,616.069C740.9,606.769 733.8,596.769 725.1,592.169C706.9,582.569 680.9,586.869 670.5,606.669Z" style="fill:rgb(225,31,38);fill-rule:nonzero;"/>
        </g>
        <g transform="matrix(0.842041,0,0,0.842041,-48.316,-186.296)">
            <circle cx="107.322" cy="276.882" r="4.157" style="fill:rgb(225,31,38);"/>
        </g>
        <g transform="matrix(0.842041,0,0,0.842041,-21.5143,-186.296)">
            <circle cx="107.322" cy="276.882" r="4.157" style="fill:rgb(225,31,38);"/>
        </g>
    </g>
    <g id="Layer1">
        <g transform="matrix(0.684999,0,0,0.684999,308.696,56.9104)">
            <path d="M0,21.923L0,21.911C0,21.897 0.002,21.882 0.002,21.866C0.002,21.833 0,21.801 -0.003,21.769C-0.013,21.117 -0.053,20.473 -0.127,19.838C-0.134,19.767 -0.141,19.696 -0.149,19.626C-0.213,19.123 -0.296,18.626 -0.4,18.136C-0.435,17.972 -0.476,17.811 -0.515,17.648C-0.531,17.579 -0.55,17.512 -0.566,17.444C-0.598,17.319 -0.629,17.193 -0.663,17.069C-0.71,16.896 -0.76,16.724 -0.812,16.553C-0.821,16.521 -0.83,16.488 -0.84,16.457C-1.24,15.15 -1.774,13.9 -2.435,12.73C-5.371,6.763 -10.311,4.346 -13.52,3.376C-14.469,3.023 -15.451,2.731 -16.461,2.506L-4.006,-14.661L-4.006,-20.207L-4.1,-20.207L-34.803,-20.207L-34.896,-20.207L-34.896,-13.213L-13.391,-13.213L-24.861,2.553L-25.248,3.084L-25.248,8.761L-18.905,8.761C-17.652,8.943 -16.452,9.27 -15.325,9.718C-13.83,10.224 -12.845,10.839 -12.193,11.422C-8.766,13.854 -6.554,17.628 -6.554,21.879C-6.554,29.216 -13.118,35.163 -21.215,35.163C-26.634,35.163 -31.962,32.099 -34.285,28.925L-35.782,30.422L-38.888,33.527L-38.897,33.537L-38.98,33.62C-38.98,33.62 -38.894,33.736 -38.866,33.771C-34.971,38.833 -28.622,42.13 -21.449,42.13C-9.602,42.13 0.002,33.137 0.002,22.044L0.002,22.016L0.002,21.993C0.002,21.97 0.001,21.946 0,21.923" style="fill:rgb(10,48,73);fill-rule:nonzero;"/>
        </g>
        <g transform="matrix(0.684999,0,0,0.684999,117.521,78.0394)">
            <path d="M0,-50.383L0.469,-50.947L8.052,-50.879L8.617,-50.505L20.981,-13.223L21.919,-9.104L22.762,-13.131L31.099,-41.043L31.099,-50.196L31.099,-50.383L31.567,-50.947L38.215,-50.879L38.684,-50.414L38.684,-40.2L46.46,-13.131L47.303,-9.104L48.146,-13.223L59.88,-50.315L60.349,-50.879L67.912,-50.879L68.472,-50.505L50.396,0.079L49.926,0.545L43.832,0.564L43.362,0.096L35.595,-26.434L34.657,-30.552L33.722,-26.434L25.759,0.079L25.29,0.545L19.268,0.564L18.799,0.096L0,-50.383Z" style="fill:rgb(10,48,73);fill-rule:nonzero;"/>
        </g>
        <g transform="matrix(0.684999,0,0,0.684999,173.443,77.5149)">
            <path d="M0,-49.43L0.469,-50.181L7.211,-50.113L7.681,-49.648L7.681,-29.225L35.032,-29.225L35.032,-49.43L35.501,-50.181L42.248,-50.113L42.713,-49.552L42.713,0.281L42.248,0.751L35.501,0.751L35.032,0.281L35.032,-22.292L7.681,-22.292L7.681,0.281L7.211,0.751L0.469,0.751L0,0.281L0,-49.43Z" style="fill:rgb(10,48,73);fill-rule:nonzero;"/>
        </g>
        <g transform="matrix(0.684999,0,0,0.684999,233.923,56.0226)">
            <path d="M0,13.389L-7.494,-7.872L-8.428,-11.152L-9.275,-7.872L-16.769,13.389L0,13.389ZM-12.508,-18.272L-12.039,-18.737L-4.588,-18.737L-4.123,-18.272L14.801,31.657L14.332,32.126L6.934,32.126L6.464,31.657L2.342,19.949L-19.015,19.949L-23.137,31.657L-23.606,32.126L-31.005,32.126L-31.474,31.657L-12.508,-18.272Z" style="fill:rgb(10,48,73);fill-rule:nonzero;"/>
        </g>
        <g transform="matrix(0.684999,0,0,0.684999,257.14,73.2828)">
            <path d="M0,-37.074L-14.801,-37.074L-15.27,-37.543L-15.27,-43.538L-14.801,-44.003L22.615,-44.003L22.992,-43.538L22.969,-37.543L22.405,-37.074L7.681,-37.074L7.681,6.459L7.211,6.929L0.469,6.929L0,6.459L0,-37.074Z" style="fill:rgb(10,48,73);fill-rule:nonzero;"/>
        </g>
        <g transform="matrix(0.684999,0,0,0.684999,416.717,47.6167)">
            <path d="M0,38.589C7.867,38.589 13.676,34.653 13.676,26.225L13.676,12.362C13.676,4.213 7.867,-0.006 0,-0.006C-7.868,-0.006 -13.676,4.213 -13.676,12.362L-13.676,26.225C-13.676,34.653 -7.868,38.589 0,38.589M-21.452,11.798C-21.452,-0.379 -12.833,-6.934 0,-6.934C12.833,-6.934 21.452,-0.379 21.452,11.798L21.452,26.973C21.452,39.058 12.833,45.523 0,45.523C-12.833,45.523 -21.452,39.058 -21.452,26.973L-21.452,11.798Z" style="fill:rgb(10,48,73);fill-rule:nonzero;"/>
        </g>
        <g transform="matrix(0.684999,0,0,0.692149,-8.79548,-145.541)">
            <path d="M703.025,272.603L703.494,273.067L703.494,322.545L703.025,323.009L696.283,323.009L695.814,322.539L695.814,273.068L696.283,272.604L703.025,272.603Z" style="fill:rgb(10,48,73);fill-rule:nonzero;"/>
        </g>
        <g transform="matrix(0.684999,0,0,0.684999,481.996,46.5567)">
            <path d="M0,41.683L3.559,36.625L4.401,36.531C4.401,36.531 9.18,39.997 15.549,39.997C20.983,39.997 25.575,37.938 25.575,32.129C25.575,20.887 1.686,26.039 1.686,9.366C1.686,0.186 9.275,-5.339 18.081,-5.339C26.23,-5.339 31.57,-2.064 32.413,-1.408L32.504,-0.752L28.946,4.309L28.194,4.401C26.04,2.81 22.482,1.685 18.455,1.685C12.364,1.685 9.554,4.778 9.554,9.083C9.554,19.11 33.347,14.987 33.347,32.035C33.347,43.464 23.607,47.022 15.362,47.022C7.12,47.022 0.187,42.338 0.187,42.338L0,41.683Z" style="fill:rgb(10,48,73);fill-rule:nonzero;"/>
        </g>
        <g transform="matrix(0.770206,0,0,0.645278,-91.6745,-64.1981)">
            <path d="M536.983,219.914L537.4,220.413L565.197,220.413L565.543,219.976L565.543,213.416L565.153,212.854L543.814,212.799L543.814,195.951L562.299,195.951L562.911,195.121L562.876,189.213L562.359,188.591L543.814,188.591L543.814,173.768L565.143,173.812L565.543,173.412L565.522,166.904L565.143,166.413L537.383,166.413L536.983,167.143L536.983,219.914Z" style="fill:rgb(10,48,73);fill-rule:nonzero;"/>
        </g>
        <g transform="matrix(0.684999,0,0,0.64554,-44.0633,-64.2557)">
            <path d="M584.423,220.013L584.823,220.413L591.703,220.413L592.103,220.013L592.191,180.95L594.031,185.35L604.383,205.373L604.863,205.773L613.582,205.773L614.062,205.373L624.506,185.642L626.506,181.242L626.503,220.013L626.743,220.413L633.783,220.413L634.183,220.013L634.183,166.888L633.965,166.367L626.958,166.428L626.506,166.888L609.303,198.973L592.176,166.888L591.724,166.367L585.077,166.428L584.899,166.553L584.423,166.888L584.423,220.013Z" style="fill:rgb(10,48,73);fill-rule:nonzero;"/>
        </g>
        <g transform="matrix(0.684999,0,0,0.653238,-45.1874,-65.809)">
            <path d="M708.343,218.493C710.663,220.253 713.783,221.373 717.543,221.373C725.543,221.373 730.903,215.693 730.903,206.813L730.905,167.365L730.503,166.911L723.644,166.851L723.225,167.365L723.225,206.173C723.225,212.973 719.99,214.576 717.27,214.576C714.95,214.576 713.11,213.776 711.43,212.496L710.79,212.576L708.263,217.933L708.343,218.493Z" style="fill:rgb(10,48,73);fill-rule:nonzero;"/>
        </g>
    </g>
</svg>
